<?xml version="1.0" encoding="UTF-8" standalone="no"?>
<!-- Created with Inkscape (http://www.inkscape.org/) -->

<svg
   width="139mm"
   height="160mm"
   viewBox="0 0 139 160"
   version="1.1"
   id="svg112420"
   inkscape:version="1.1.2 (0a00cf5339, 2022-02-04)"
   sodipodi:docname="url_reader.svg"
   xmlns:inkscape="http://www.inkscape.org/namespaces/inkscape"
   xmlns:sodipodi="http://sodipodi.sourceforge.net/DTD/sodipodi-0.dtd"
   xmlns="http://www.w3.org/2000/svg"
   xmlns:svg="http://www.w3.org/2000/svg">
  <sodipodi:namedview
     id="namedview112422"
     pagecolor="#ffffff"
     bordercolor="#666666"
     borderopacity="1.0"
     inkscape:pageshadow="2"
     inkscape:pageopacity="0.0"
     inkscape:pagecheckerboard="0"
     inkscape:document-units="mm"
     showgrid="true"
     inkscape:zoom="0.75098906"
     inkscape:cx="114.51565"
     inkscape:cy="458.72839"
     inkscape:window-width="1920"
     inkscape:window-height="1025"
     inkscape:window-x="0"
     inkscape:window-y="0"
     inkscape:window-maximized="1"
     inkscape:current-layer="layer1">
    <inkscape:grid
       type="xygrid"
       id="grid112424" />
  </sodipodi:namedview>
  <defs
     id="defs112417" />
  <g
     inkscape:label="Layer 1"
     inkscape:groupmode="layer"
     id="layer1">
    <rect
       style="fill:#0000ff;fill-opacity:0;stroke:#000000;stroke-width:0.436435;stroke-linejoin:bevel"
       id="rect112448"
       width="42.33334"
       height="21.16667"
       x="51.593754"
       y="7.937501"
       ry="1.6564312" />
    <text
       xml:space="preserve"
       style="font-style:normal;font-weight:normal;font-size:5.64444px;line-height:1.25;font-family:sans-serif;fill:#000000;fill-opacity:1;stroke:none;stroke-width:0.264583"
       x="52.547207"
       y="14.542481"
       id="text113398"><tspan
         sodipodi:role="line"
         id="tspan113396"
         style="font-size:5.64444px;stroke-width:0.264583"
         x="52.547207"
         y="14.542481">URLReaderI</tspan></text>
    <path
       style="fill:none;stroke:#000000;stroke-width:0.282851px;stroke-linecap:butt;stroke-linejoin:miter;stroke-opacity:1"
       d="M 51.593752,17.197922 H 93.927083"
       id="path116683" />
    <text
       xml:space="preserve"
       style="font-style:normal;font-weight:normal;font-size:4.93889px;line-height:1.25;font-family:sans-serif;fill:#000000;fill-opacity:1;stroke:none;stroke-width:0.264583"
       x="53.34782"
       y="23.241295"
       id="text117705"><tspan
         sodipodi:role="line"
         id="tspan117703"
         style="font-size:4.93889px;stroke-width:0.264583"
         x="53.34782"
         y="23.241295">+virtual next()</tspan></text>
    <rect
       style="fill:#0000ff;fill-opacity:0;stroke:#000000;stroke-width:0.557683;stroke-linejoin:bevel"
       id="rect112448-9"
       width="50.27084"
       height="29.104155"
       x="80.697906"
       y="52.916679"
       ry="2.2775915" />
    <text
       xml:space="preserve"
       style="font-style:normal;font-weight:normal;font-size:5.64444px;line-height:1.25;font-family:sans-serif;fill:#000000;fill-opacity:1;stroke:none;stroke-width:0.264583"
       x="81.651367"
       y="59.521645"
       id="text113398-3"><tspan
         sodipodi:role="line"
         id="tspan113396-7"
         style="font-size:5.64444px;stroke-width:0.264583"
         x="81.651367"
         y="59.521645">RawURLReader</tspan></text>
    <path
       style="fill:none;stroke:#000000;stroke-width:0.30823px;stroke-linecap:butt;stroke-linejoin:miter;stroke-opacity:1"
       d="M 80.697923,62.177097 H 130.96875"
       id="path116683-4" />
    <text
       xml:space="preserve"
       style="font-style:normal;font-weight:normal;font-size:4.93889px;line-height:1.25;font-family:sans-serif;fill:#000000;fill-opacity:1;stroke:none;stroke-width:0.264583"
       x="82.451981"
       y="68.220467"
       id="text117705-5"><tspan
         sodipodi:role="line"
         id="tspan117703-2"
         style="font-size:4.93889px;stroke-width:0.264583"
         x="82.451981"
         y="68.220467">+next()</tspan></text>
    <path
       style="fill:none;stroke:#000000;stroke-width:0.264583px;stroke-linecap:butt;stroke-linejoin:miter;stroke-opacity:1"
       d="M 80.697923,70.114587 H 130.96875"
       id="path125477" />
    <text
       xml:space="preserve"
       style="font-size:4.9389px;line-height:1.25;font-family:sans-serif;stroke-width:0.264583"
       x="82.513443"
       y="78.00872"
       id="text127335"><tspan
         sodipodi:role="line"
         id="tspan127333"
         style="stroke-width:0.264583"
         x="82.513443"
         y="78.00872">+string mUrl</tspan></text>
    <rect
       style="fill:#0000ff;fill-opacity:0;stroke:#000000;stroke-width:0.557683;stroke-linejoin:bevel"
       id="rect112448-9-5"
       width="50.27084"
       height="29.104155"
       x="9.2604094"
       y="52.916679"
       ry="2.2775915" />
    <text
       xml:space="preserve"
       style="font-style:normal;font-weight:normal;font-size:5.64444px;line-height:1.25;font-family:sans-serif;fill:#000000;fill-opacity:1;stroke:none;stroke-width:0.264583"
       x="10.21387"
       y="59.521629"
       id="text113398-3-4"><tspan
         sodipodi:role="line"
         id="tspan113396-7-7"
         style="font-size:5.64444px;stroke-width:0.264583"
         x="10.21387"
         y="59.521629">FileURLReader</tspan></text>
    <path
       style="fill:none;stroke:#000000;stroke-width:0.30823px;stroke-linecap:butt;stroke-linejoin:miter;stroke-opacity:1"
       d="M 9.2604223,62.177077 H 59.531253"
       id="path116683-4-4" />
    <text
       xml:space="preserve"
       style="font-style:normal;font-weight:normal;font-size:4.93889px;line-height:1.25;font-family:sans-serif;fill:#000000;fill-opacity:1;stroke:none;stroke-width:0.264583"
       x="11.014483"
       y="68.220451"
       id="text117705-5-4"><tspan
         sodipodi:role="line"
         id="tspan117703-2-3"
         style="font-size:4.93889px;stroke-width:0.264583"
         x="11.014483"
         y="68.220451">+next()</tspan></text>
    <path
       style="fill:none;stroke:#000000;stroke-width:0.264583px;stroke-linecap:butt;stroke-linejoin:miter;stroke-opacity:1"
       d="M 9.2604223,70.114567 H 59.531253"
       id="path125477-0" />
    <text
       xml:space="preserve"
       style="font-size:4.9389px;line-height:1.25;font-family:sans-serif;stroke-width:0.264583"
       x="11.075946"
       y="78.008705"
       id="text127335-7"><tspan
         sodipodi:role="line"
         id="tspan127333-8"
         style="stroke-width:0.264583"
         x="11.075946"
         y="78.008705">+list&lt;string&gt; mUrl</tspan></text>
    <path
       style="fill:none;stroke:#000000;stroke-width:0.264583px;stroke-linecap:butt;stroke-linejoin:miter;stroke-opacity:1"
       d="m 72.760423,29.10417 -5.29166,5.291667 h 10.58333 z"
       id="path132653" />
    <path
       style="fill:none;stroke:#000000;stroke-width:0.264583px;stroke-linecap:butt;stroke-linejoin:miter;stroke-opacity:1"
       d="m 72.760423,34.395837 v 7.9375 H 34.395836 v 10.58333"
       id="path132768"
       sodipodi:nodetypes="cccc" />
    <path
       style="fill:none;stroke:#000000;stroke-width:0.264583px;stroke-linecap:butt;stroke-linejoin:miter;stroke-opacity:1"
       d="m 72.760423,42.333337 h 33.072907 v 10.58333"
       id="path133020"
       sodipodi:nodetypes="ccc" />
    <rect
       style="fill:#0000ff;fill-opacity:0;stroke:#000000;stroke-width:0.639706;stroke-linejoin:bevel"
       id="rect112448-9-5-6"
       width="66.145836"
       height="29.104155"
       x="46.30209"
       y="116.41666"
       ry="2.2775915" />
    <text
       xml:space="preserve"
       style="font-style:normal;font-weight:normal;font-size:5.64444px;line-height:1.25;font-family:sans-serif;fill:#000000;fill-opacity:1;stroke:none;stroke-width:0.264583"
       x="47.25555"
       y="123.02161"
       id="text113398-3-4-8"><tspan
         sodipodi:role="line"
         id="tspan113396-7-7-8"
         style="font-size:5.64444px;stroke-width:0.264583"
         x="47.25555"
         y="123.02161">URLParser</tspan></text>
    <path
       style="fill:none;stroke:#000000;stroke-width:0.353564px;stroke-linecap:butt;stroke-linejoin:miter;stroke-opacity:1"
       d="M 46.302101,125.67707 H 112.44792"
       id="path116683-4-4-4" />
    <text
       xml:space="preserve"
       style="font-style:normal;font-weight:normal;font-size:4.93889px;line-height:1.25;font-family:sans-serif;fill:#000000;fill-opacity:1;stroke:none;stroke-width:0.264583"
       x="48.056164"
       y="131.72044"
       id="text117705-5-4-3"><tspan
         sodipodi:role="line"
         id="tspan117703-2-3-1"
         style="font-size:4.93889px;stroke-width:0.264583"
         x="48.056164"
         y="131.72044">+next()</tspan></text>
    <path
       style="fill:none;stroke:#000000;stroke-width:0.303497px;stroke-linecap:butt;stroke-linejoin:miter;stroke-opacity:1"
       d="M 46.302101,133.61456 H 112.44792"
       id="path125477-0-4" />
    <text
       xml:space="preserve"
       style="font-size:4.9389px;line-height:1.25;font-family:sans-serif;stroke-width:0.264583"
       x="48.117626"
       y="141.5087"
       id="text127335-7-9"><tspan
         sodipodi:role="line"
         id="tspan127333-8-2"
         style="stroke-width:0.264583"
         x="48.117626"
         y="141.5087">+URLReaderI mCallback</tspan></text>
    <path
       style="fill:none;stroke:#000000;stroke-width:0.264583px;stroke-linecap:butt;stroke-linejoin:miter;stroke-opacity:1"
       d="m 63.500003,116.41667 -2.64583,-3.96875 2.64583,-3.96875 2.64583,3.96875 z"
       id="path137189" />
    <path
       style="fill:#0000ff;fill-opacity:0;stroke:#000000;stroke-width:0.166447;stroke-linejoin:bevel"
       d="m 62.277627,114.24388 -1.194152,-1.7918 1.211313,-1.81754 1.211315,-1.81754 1.210244,1.81594 1.210241,1.81595 -1.168267,1.75685 c -0.642549,0.96626 -1.19488,1.77329 -1.227405,1.79339 -0.03252,0.0201 -0.596503,-0.76976 -1.253289,-1.75525 z"
       id="path137228" />
    <path
       style="fill:#0000ff;fill-opacity:0;stroke:#000000;stroke-width:0.166447;stroke-linejoin:bevel"
       d="m 62.367744,114.11138 -1.110046,-1.65635 1.12422,-1.68695 1.12422,-1.68694 1.122098,1.68377 1.1221,1.68378 -1.079942,1.62471 c -0.593965,0.89358 -1.105289,1.64037 -1.136271,1.65952 -0.03098,0.0192 -0.555853,-0.71055 -1.166379,-1.62154 z"
       id="path137267" />
    <path
       style="fill:#0000ff;fill-opacity:0;stroke:#000000;stroke-width:0.166447;stroke-linejoin:bevel"
       d="m 62.458068,113.9786 -1.025798,-1.52114 1.036952,-1.5561 1.036955,-1.55609 1.033944,1.55159 1.033947,1.55159 -0.991571,1.49256 c -0.545364,0.82091 -1.015659,1.50745 -1.045099,1.52565 -0.02944,0.0182 -0.515138,-0.65143 -1.07933,-1.48806 z"
       id="path137306" />
    <path
       style="fill:#0000ff;fill-opacity:0;stroke:#000000;stroke-width:0.166447;stroke-linejoin:bevel"
       d="m 63.159174,114.74147 c -0.257511,-0.35581 -1.29929,-1.8811 -1.491372,-2.18354 -0.0339,-0.0534 0.365882,-0.73863 0.888397,-1.52279 l 0.950023,-1.42577 0.945777,1.4194 0.94578,1.4194 -0.90011,1.35584 c -0.495059,0.74571 -0.930619,1.35584 -0.967909,1.35584 -0.03729,0 -0.204055,-0.18827 -0.370586,-0.41838 z"
       id="path137345" />
    <path
       style="fill:#0000ff;fill-opacity:0;stroke:#000000;stroke-width:0.166447;stroke-linejoin:bevel"
       d="m 63.341188,114.74147 c -0.321265,-0.37212 -1.479642,-2.12875 -1.479642,-2.24381 0,-0.0699 0.369207,-0.69019 0.820462,-1.37848 l 0.820465,-1.25144 0.859494,1.29005 0.859494,1.29005 -0.811753,1.22389 c -0.446466,0.67313 -0.839586,1.22388 -0.873604,1.22388 -0.03401,0 -0.121729,-0.0694 -0.194916,-0.15414 z"
       id="path137384" />
    <path
       style="fill:#0000ff;fill-opacity:0;stroke:#000000;stroke-width:0.166447;stroke-linejoin:bevel"
       d="m 62.747987,113.66026 c -0.390657,-0.58443 -0.710284,-1.10695 -0.710284,-1.16114 0,-0.16824 1.438852,-2.36578 1.502484,-2.29473 0.03305,0.0369 0.385495,0.55622 0.783206,1.15403 l 0.723109,1.08691 -0.726755,1.09713 c -0.399716,0.60343 -0.757068,1.11587 -0.794115,1.13877 -0.03705,0.0229 -0.386987,-0.43654 -0.777645,-1.02097 z"
       id="path137423" />
    <path
       style="fill:#0000ff;fill-opacity:0;stroke:#000000;stroke-width:0.166447;stroke-linejoin:bevel"
       d="m 62.836416,113.52717 c -0.342407,-0.51205 -0.622556,-0.98053 -0.622556,-1.04104 0,-0.14284 1.205,-1.99516 1.295921,-1.99209 0.03811,0.001 0.363077,0.43574 0.722148,0.96544 l 0.652857,0.96311 -0.645374,0.97606 c -0.354955,0.53684 -0.675762,0.99485 -0.712907,1.0178 -0.03714,0.023 -0.347683,-0.37722 -0.690089,-0.88928 z"
       id="path137462" />
    <path
       style="fill:#0000ff;fill-opacity:0;stroke:#000000;stroke-width:0.166447;stroke-linejoin:bevel"
       d="m 62.924922,113.39373 c -0.294198,-0.43983 -0.534905,-0.84779 -0.534905,-0.90657 0,-0.14181 1.030184,-1.73123 1.122098,-1.73123 0.0394,0 0.324305,0.37538 0.633124,0.83417 l 0.561491,0.83416 -0.555668,0.84269 c -0.305615,0.46348 -0.586168,0.86154 -0.623448,0.88458 -0.03728,0.0231 -0.308491,-0.31797 -0.602692,-0.7578 z"
       id="path137501" />
    <path
       style="fill:#0000ff;fill-opacity:0;stroke:#000000;stroke-width:0.166447;stroke-linejoin:bevel"
       d="m 63.013531,113.25968 c -0.246046,-0.36788 -0.447355,-0.71508 -0.447347,-0.77158 1.6e-5,-0.13858 0.856195,-1.46793 0.945433,-1.46793 0.03889,0 0.283903,0.31579 0.544481,0.70175 l 0.473779,0.70175 -0.466326,0.7103 c -0.256479,0.39067 -0.497001,0.72926 -0.534492,0.75243 -0.03749,0.0232 -0.269481,-0.25885 -0.515528,-0.62672 z"
       id="path137540" />
    <path
       style="fill:#0000ff;fill-opacity:0;stroke:#000000;stroke-width:0.166447;stroke-linejoin:bevel"
       d="m 63.092721,113.12039 c -0.192715,-0.29817 -0.350015,-0.58552 -0.349554,-0.63857 0.0013,-0.14406 0.686773,-1.19742 0.779282,-1.19742 0.04398,0 0.248396,0.25851 0.45425,0.57447 l 0.37428,0.57446 -0.408676,0.6146 c -0.224771,0.33802 -0.42904,0.61459 -0.453932,0.61459 -0.0249,0 -0.202936,-0.24396 -0.39565,-0.54213 z"
       id="path137579" />
    <path
       style="fill:#0000ff;fill-opacity:0;stroke:#000000;stroke-width:0.166447;stroke-linejoin:bevel"
       d="m 63.200274,113.01793 c -0.154982,-0.25573 -0.281789,-0.50481 -0.281789,-0.55353 0,-0.1374 0.514585,-0.91576 0.605427,-0.91576 0.04446,0 0.208497,0.19894 0.364525,0.44209 l 0.283691,0.44209 -0.345032,0.52503 -0.34503,0.52503 z"
       id="path137618" />
    <path
       style="fill:#0000ff;fill-opacity:0;stroke:#000000;stroke-width:0.166447;stroke-linejoin:bevel"
       d="m 63.269783,112.84201 -0.205777,-0.3879 0.170262,-0.29153 c 0.234151,-0.40092 0.337936,-0.40883 0.564044,-0.043 l 0.194638,0.31493 -0.258694,0.39769 -0.258694,0.39769 z"
       id="path137657" />
    <path
       style="fill:#0000ff;fill-opacity:0;stroke:#000000;stroke-width:0.0208059;stroke-linejoin:bevel"
       d="m 63.32715,112.75868 c -0.08549,-0.16162 -0.15544,-0.29791 -0.15544,-0.30286 0,-0.0107 0.162501,-0.28811 0.216593,-0.36975 0.04234,-0.0639 0.118874,-0.14659 0.135676,-0.14659 0.0061,0 0.03119,0.0183 0.05588,0.0406 0.04397,0.0397 0.120967,0.15057 0.24462,0.35216 l 0.06193,0.10096 -0.198982,0.30641 c -0.10944,0.16852 -0.200298,0.30788 -0.201907,0.30968 -0.0016,0.002 -0.07287,-0.12895 -0.158363,-0.29057 z"
       id="path137696" />
    <path
       style="fill:#0000ff;fill-opacity:0;stroke:#000000;stroke-width:0.0208059;stroke-linejoin:bevel"
       d="m 63.445416,112.94286 c -0.08274,-0.15194 -0.2256,-0.42676 -0.23962,-0.46097 -0.01437,-0.035 -0.01278,-0.0387 0.09716,-0.22219 0.101809,-0.16998 0.197143,-0.29819 0.221723,-0.29819 0.03043,0 0.144851,0.15295 0.289526,0.38703 l 0.05208,0.0843 -0.177964,0.27355 c -0.09788,0.15046 -0.183624,0.28166 -0.190543,0.29156 -0.01071,0.0153 -0.01849,0.007 -0.05236,-0.0551 z"
       id="path137735" />
    <path
       style="fill:#0000ff;fill-opacity:0;stroke:#000000;stroke-width:0.0208059;stroke-linejoin:bevel"
       d="m 63.352952,112.73139 c -0.0708,-0.13378 -0.131281,-0.25299 -0.134393,-0.26489 -0.0095,-0.0363 0.272307,-0.48298 0.304687,-0.48298 0.02318,0 0.168195,0.19722 0.28082,0.38193 l 0.04155,0.0681 -0.173064,0.26503 c -0.09519,0.14577 -0.17707,0.26751 -0.181965,0.27053 -0.0049,0.003 -0.06683,-0.10396 -0.137636,-0.23776 z"
       id="path137774" />
    <path
       style="fill:#0000ff;fill-opacity:0;stroke:#000000;stroke-width:0.0208059;stroke-linejoin:bevel"
       d="m 63.410538,112.801 c -0.03905,-0.0712 -0.09456,-0.17642 -0.123364,-0.23394 l -0.05237,-0.10458 0.04172,-0.081 c 0.04977,-0.0967 0.233014,-0.37591 0.24669,-0.37591 0.02545,0 0.30357,0.41022 0.29437,0.43419 -0.01156,0.0301 -0.318458,0.49063 -0.326975,0.49063 -0.005,0 -0.04102,-0.0582 -0.08006,-0.12936 z"
       id="path137813" />
    <path
       style="fill:#0000ff;fill-opacity:0;stroke:#000000;stroke-width:0.0208059;stroke-linejoin:bevel"
       d="m 63.423088,112.78449 c -0.03408,-0.0621 -0.08664,-0.15915 -0.116814,-0.21574 l -0.05485,-0.10289 0.04957,-0.0896 c 0.07049,-0.12743 0.209185,-0.33766 0.222768,-0.33766 0.02545,0 0.269214,0.35852 0.269214,0.39593 0,0.0186 -0.289105,0.46284 -0.301242,0.46284 -0.0037,0 -0.03457,-0.0508 -0.06865,-0.11285 z"
       id="path137852" />
    <path
       style="fill:#0000ff;fill-opacity:0;stroke:#000000;stroke-width:0.0208059;stroke-linejoin:bevel"
       d="m 63.482852,112.85101 c -0.0064,-0.008 -0.05695,-0.0976 -0.112358,-0.1994 l -0.100746,-0.18517 0.05187,-0.0901 c 0.06199,-0.10764 0.165156,-0.26973 0.188532,-0.29621 0.01561,-0.0177 0.019,-0.0162 0.04964,0.022 0.04071,0.0507 0.148473,0.21047 0.188772,0.2798 l 0.03002,0.0517 -0.06851,0.10799 c -0.07722,0.12173 -0.19598,0.30169 -0.207796,0.3149 -0.0043,0.005 -0.01304,0.002 -0.01942,-0.005 z"
       id="path137891" />
    <path
       style="fill:#0000ff;fill-opacity:0;stroke:#000000;stroke-width:0.0208059;stroke-linejoin:bevel"
       d="m 63.465421,112.78558 c -0.05836,-0.10058 -0.172569,-0.31248 -0.172585,-0.32021 -1.6e-5,-0.008 0.143147,-0.24585 0.198652,-0.33031 0.01487,-0.0226 0.03199,-0.0397 0.03804,-0.0379 0.01355,0.004 0.225531,0.31669 0.225629,0.33279 6.4e-5,0.0105 -0.232082,0.37206 -0.253063,0.39414 -0.0049,0.005 -0.02138,-0.0122 -0.03667,-0.0385 z"
       id="path137930" />
    <path
       style="fill:#0000ff;fill-opacity:0;stroke:#000000;stroke-width:0.0208059;stroke-linejoin:bevel"
       d="m 63.432769,112.69202 c -0.0334,-0.0597 -0.0742,-0.1361 -0.09069,-0.16988 l -0.02997,-0.0614 0.06911,-0.11441 c 0.03801,-0.0629 0.08609,-0.14096 0.106844,-0.1734 l 0.03773,-0.059 0.0712,0.1027 c 0.113932,0.16432 0.138925,0.20635 0.132567,0.22292 -0.008,0.0208 -0.204753,0.3271 -0.222303,0.34605 -0.01127,0.0122 -0.02479,-0.005 -0.07449,-0.0936 z"
       id="path137969" />
    <path
       style="fill:#0000ff;fill-opacity:0;stroke:#000000;stroke-width:0.0208059;stroke-linejoin:bevel"
       d="m 63.455578,112.69585 c -0.07778,-0.13497 -0.120959,-0.2282 -0.114038,-0.24624 0.009,-0.0234 0.159793,-0.26914 0.176245,-0.28719 0.0097,-0.0107 0.03334,0.0172 0.104423,0.12318 0.05757,0.0858 0.08939,0.14338 0.08525,0.15418 -0.0091,0.0238 -0.194299,0.31304 -0.204385,0.31927 -0.0045,0.003 -0.02585,-0.0257 -0.0475,-0.0632 z"
       id="path138008" />
    <path
       style="fill:#0000ff;fill-opacity:0;stroke:#000000;stroke-width:0.0208059;stroke-linejoin:bevel"
       d="m 63.440248,112.63035 c -0.09708,-0.17575 -0.09674,-0.15327 -0.0045,-0.30588 0.04385,-0.0726 0.08321,-0.13411 0.08748,-0.13675 0.0043,-0.003 0.03796,0.0408 0.07489,0.0964 0.09119,0.1375 0.09474,0.14541 0.07862,0.17554 -0.01791,0.0335 -0.173295,0.27249 -0.177139,0.27249 -0.0016,0 -0.02837,-0.0458 -0.0593,-0.10184 z"
       id="path138047" />
    <path
       style="fill:#0000ff;fill-opacity:0;stroke:#000000;stroke-width:0.0208059;stroke-linejoin:bevel"
       d="m 63.435409,112.58352 -0.06002,-0.11563 0.03407,-0.0633 c 0.01873,-0.0348 0.05265,-0.0923 0.07537,-0.1277 l 0.04131,-0.0644 0.04243,0.0589 c 0.02334,0.0324 0.05545,0.0826 0.07137,0.11155 l 0.02893,0.0526 -0.03019,0.052 c -0.03323,0.0572 -0.135604,0.21162 -0.140298,0.21162 -0.0016,0 -0.02996,-0.052 -0.06297,-0.11564 z"
       id="path138086" />
    <path
       style="fill:#0000ff;fill-opacity:0;stroke:#000000;stroke-width:0.0208059;stroke-linejoin:bevel"
       d="m 51.80961,116.41496 v -0.31378 h 5.664538 5.664539 l -1.217499,-1.82625 -1.217498,-1.82626 1.395478,-2.09323 c 0.767514,-1.15127 1.398373,-2.09308 1.401911,-2.09291 0.0035,1.8e-4 0.633986,0.94214 1.401003,2.09325 l 1.394574,2.09293 -1.215668,1.82349 -1.215668,1.82348 8.995,0.003 8.994997,0.003 v 0.31377 0.31378 H 66.832463 51.80961 Z m 11.766005,-0.33435 c 0.01193,-0.0191 0.0096,-0.0202 -0.03313,-0.0154 -0.03581,0.004 -0.05273,-1.9e-4 -0.07646,-0.0189 -0.03283,-0.0259 -0.160229,-0.18696 -0.298376,-0.37721 -0.04727,-0.0651 -0.088,-0.11835 -0.09051,-0.11835 -0.0024,0 0.07799,0.12386 0.178895,0.27524 l 0.183457,0.27525 h 0.06164 c 0.04828,0 0.06443,-0.004 0.07449,-0.0206 z m -0.01781,-0.24143 0.02828,-0.041 -0.04164,0.004 c -0.05119,0.005 -0.07609,-0.0132 -0.159662,-0.11587 -0.120709,-0.14832 -0.09609,-0.10714 0.05551,0.0928 0.04246,0.056 0.07991,0.10165 0.08322,0.10142 0.0033,-2.3e-4 0.01873,-0.0189 0.03429,-0.0414 z m 0.02574,-0.29813 c 0.0095,-0.0125 0.0038,-0.0138 -0.03334,-0.008 -0.0562,0.01 -0.08447,-0.0122 -0.187224,-0.14381 -0.03959,-0.0507 -0.07409,-0.0922 -0.07666,-0.0922 -0.0058,0 0.101413,0.14618 0.180081,0.24541 l 0.05926,0.0748 0.02318,-0.0307 c 0.01275,-0.0169 0.02836,-0.0375 0.03471,-0.0459 z m -0.27972,0.0385 c 0,-0.002 -0.0087,-0.011 -0.01926,-0.0193 -0.01746,-0.0137 -0.01786,-0.0133 -0.0042,0.004 0.01439,0.0183 0.02342,0.0242 0.02342,0.0151 z m 0.292185,-0.31808 c 0.147735,-0.21206 0.248367,-0.36037 0.244514,-0.36037 -0.0024,0 -0.04603,0.0556 -0.09708,0.1235 -0.130736,0.17396 -0.163785,0.20679 -0.208161,0.20679 -0.04864,0 -0.09733,-0.032 -0.172844,-0.11359 -0.06788,-0.0733 -0.0559,-0.0546 0.07786,0.12185 0.04246,0.056 0.08239,0.10175 0.08872,0.10164 0.0063,-1.1e-4 0.03648,-0.036 0.06699,-0.0798 z m -0.0063,-0.28606 c 0.0554,-0.0742 0.0567,-0.0773 0.0186,-0.044 -0.05529,0.0483 -0.09762,0.0475 -0.172767,-0.003 -0.03173,-0.0213 -0.05938,-0.0371 -0.06143,-0.0351 -0.0051,0.005 0.138698,0.162 0.148368,0.162 0.0042,0 0.03446,-0.0359 0.06723,-0.0798 z m -0.0428,-0.20221 0.02669,-0.0288 -0.03623,0.008 c -0.03849,0.008 -0.06499,-0.004 -0.128918,-0.0582 -0.01818,-0.0155 -0.0026,0.002 0.03468,0.04 0.03724,0.0375 0.06982,0.0681 0.0724,0.0681 0.0026,0 0.01669,-0.013 0.03137,-0.0288 z m -0.165978,-0.11812 c 0,-0.002 -0.01114,-0.0132 -0.02477,-0.0248 l -0.02476,-0.021 0.02098,0.0248 c 0.01971,0.0233 0.02857,0.0298 0.02857,0.021 z m 0.180507,-0.14064 c 0.02315,-0.031 0.03783,-0.0544 0.03263,-0.0519 -0.0052,0.002 -0.0227,0.0111 -0.03892,0.0192 -0.05554,0.0279 -0.102359,-0.002 -0.228788,-0.14763 -0.03815,-0.0439 -0.04148,-0.0461 -0.01638,-0.011 0.0693,0.0969 0.192953,0.24771 0.203055,0.24771 0.0035,0 0.02527,-0.0254 0.04841,-0.0564 z m -1.11e-4,-0.26264 0.03935,-0.0548 -0.03715,0.0177 c -0.05737,0.0274 -0.08957,0.0123 -0.187381,-0.0879 -0.04833,-0.0495 -0.08023,-0.0801 -0.07089,-0.068 0.08902,0.11547 0.199691,0.24772 0.207298,0.24772 0.0052,0 0.02714,-0.0246 0.04878,-0.0548 z m 0.0056,-0.26973 0.0455,-0.0603 -0.03841,0.0226 c -0.06221,0.0367 -0.09593,0.0222 -0.203731,-0.0878 -0.05808,-0.0592 -0.07907,-0.0764 -0.05566,-0.0456 0.07151,0.0943 0.188569,0.2312 0.197668,0.2312 0.005,0 0.02961,-0.0271 0.05464,-0.0603 z m -0.274052,0.0451 c 0,-0.002 -0.0087,-0.011 -0.01926,-0.0193 -0.01746,-0.0137 -0.01786,-0.0133 -0.0042,0.004 0.01439,0.0183 0.02342,0.0242 0.02342,0.0151 z m 0.296007,-0.33801 0.05964,-0.0817 -0.05989,0.0633 c -0.04581,0.0484 -0.06731,0.0633 -0.09145,0.0633 -0.03099,0 -0.0312,5.3e-4 -0.0114,0.0223 0.01109,0.0122 0.0254,0.0205 0.03181,0.0184 0.0064,-0.002 0.03848,-0.0406 0.07128,-0.0856 z m -0.08682,-0.15328 c 0,-0.006 -0.0077,-0.011 -0.01717,-0.011 -0.0094,0 -0.0141,0.005 -0.01037,0.011 0.0037,0.006 0.01146,0.011 0.01717,0.011 0.0057,0 0.01037,-0.005 0.01037,-0.011 z m 0.0067,-0.22845 c 0.02172,-0.0286 0.01905,-0.0329 -0.0232,-0.0379 -0.02119,-0.002 -0.03853,-0.003 -0.03853,-0.002 0,0.002 0.0057,0.0154 0.01278,0.0308 0.015,0.0329 0.02877,0.0354 0.04897,0.009 z m 0.180665,-0.54652 c 0.109797,-0.16856 0.201962,-0.31255 0.204814,-0.31998 0.0052,-0.0137 -0.145108,-0.26326 -0.233341,-0.38734 -0.05427,-0.0763 -0.107632,-0.12551 -0.134906,-0.12436 -0.01497,5.3e-4 -0.01431,0.003 0.0036,0.0112 0.01876,0.009 0.01746,0.01 -0.0087,0.006 -0.02564,-0.004 -0.0394,0.006 -0.08349,0.055 -0.04798,0.0538 -0.0822,0.10724 -0.236238,0.36866 l -0.04949,0.084 0.15644,0.29605 c 0.171722,0.32497 0.172453,0.32629 0.177882,0.32086 0.0021,-0.002 0.09361,-0.14169 0.203401,-0.31025 z m -1.767189,0.0236 c -0.01579,-0.0257 -0.05372,-0.096 -0.08431,-0.15615 -0.05582,-0.10978 -0.05918,-0.12752 -0.0376,-0.19891 0.0037,-0.0121 -0.0058,0.003 -0.02093,0.033 -0.01519,0.0303 -0.02766,0.0616 -0.02774,0.0695 -1.56e-4,0.0159 0.182359,0.29932 0.192783,0.29932 0.0036,0 -0.0064,-0.0211 -0.0222,-0.0468 z m 0.967264,-0.1784 c -0.02143,-0.0451 -0.04179,-0.10305 -0.04523,-0.12871 -0.0056,-0.0421 -0.0072,-0.0441 -0.01598,-0.0204 -0.0077,0.0209 5.3e-4,0.0473 0.03979,0.12871 0.02724,0.0563 0.05196,0.10243 0.05495,0.10243 0.003,0 -0.01209,-0.0369 -0.03353,-0.0821 z m -0.214387,-0.0818 c -0.0068,-0.0195 -0.0094,-0.0512 -0.0058,-0.0706 l 0.0065,-0.0352 -0.01728,0.0316 c -0.01585,0.029 -0.01569,0.0352 0.0021,0.0744 0.02278,0.0505 0.03228,0.0504 0.01463,-2.2e-4 z m -1.050348,-0.0917 c 0.03989,-0.099 0.22056,-0.42104 0.400127,-0.71329 0.0093,-0.0151 0.01164,-0.0226 0.0052,-0.0165 -0.02058,0.0194 -0.498803,0.74248 -0.498803,0.7542 0,0.006 0.01114,0.0284 0.02477,0.0494 0.0205,0.0315 0.02598,0.0348 0.03183,0.0191 0.0039,-0.0104 0.02045,-0.0522 0.03685,-0.0929 z m 0.340501,0.0851 c -0.0038,-0.015 -0.0016,-0.0423 0.0047,-0.0606 0.0155,-0.0445 0.0056,-0.0425 -0.01304,0.003 -0.01058,0.0256 -0.01167,0.0429 -0.0038,0.0606 0.01463,0.0328 0.02064,0.0315 0.01209,-0.003 z m 0.173947,-0.0222 c -0.0043,-0.0343 -0.0073,-0.0391 -0.01339,-0.022 -0.0043,0.0121 -0.0028,0.0332 0.0034,0.0468 0.01479,0.0327 0.01664,0.0281 0.01,-0.0248 z m 0.1793,-0.0118 c 0,-0.0562 -0.0011,-0.0588 -0.01243,-0.0309 -0.0085,0.0208 -0.009,0.0402 -0.0016,0.0613 0.0059,0.017 0.01151,0.0309 0.01244,0.0309 7.94e-4,0 0.0016,-0.0276 0.0016,-0.0613 z m 0.176157,-1e-5 c 0,-0.0595 -5.29e-4,-0.0603 -0.01368,-0.0278 -0.01045,0.0256 -0.01069,0.04 -0.0011,0.0613 0.007,0.0153 0.01312,0.0278 0.01368,0.0278 5.29e-4,0 0.0011,-0.0276 0.0011,-0.0613 z m -1.473295,-0.0398 c -0.0035,-0.009 -0.0061,-0.006 -0.0066,0.007 -5.29e-4,0.0116 0.0021,0.0181 0.0058,0.0144 0.0037,-0.004 0.004,-0.0131 7.94e-4,-0.0211 z m 0.165145,0 c -0.0035,-0.009 -0.0061,-0.006 -0.0066,0.007 -5.29e-4,0.0116 0.0021,0.0181 0.0058,0.0144 0.0037,-0.004 0.004,-0.0131 7.94e-4,-0.0211 z m 0.176157,0 c -0.0035,-0.009 -0.0061,-0.006 -0.0066,0.007 -5.29e-4,0.0116 0.0021,0.0181 0.0058,0.0144 0.0037,-0.004 0.004,-0.0131 7.94e-4,-0.0211 z m 2.711728,-0.0172 c 1.11e-4,-0.008 -0.0048,-0.0138 -0.01085,-0.0138 -0.0061,0 -0.01093,0.0136 -0.01085,0.0303 1.32e-4,0.0236 0.0026,0.0266 0.01085,0.0138 0.0059,-0.009 0.01074,-0.0227 0.01085,-0.0303 z m 1.049946,0.0134 c -0.0087,-0.0228 -0.01487,-0.0201 -0.01487,0.007 0,0.0125 0.0047,0.0197 0.01053,0.0162 0.0058,-0.004 0.0077,-0.0138 0.0043,-0.0227 z m 0.176154,0 c -0.0087,-0.0228 -0.01484,-0.0201 -0.01484,0.007 0,0.0125 0.0047,0.0197 0.01053,0.0162 0.0058,-0.004 0.0077,-0.0138 0.0043,-0.0227 z m 0.176157,0 c -0.0087,-0.0228 -0.01484,-0.0201 -0.01484,0.007 0,0.0125 0.0047,0.0197 0.01053,0.0162 0.0058,-0.004 0.0078,-0.0138 0.0043,-0.0227 z m 0.176157,0 c -0.0087,-0.0228 -0.01487,-0.0201 -0.01487,0.007 0,0.0125 0.0047,0.0197 0.01053,0.0162 0.0058,-0.004 0.0077,-0.0138 0.0043,-0.0227 z m 0.176157,0 c -0.0087,-0.0228 -0.01487,-0.0201 -0.01487,0.007 0,0.0125 0.0047,0.0197 0.01053,0.0162 0.0058,-0.004 0.0077,-0.0138 0.0043,-0.0227 z m -1.581962,-0.0189 c -0.003,-0.008 -0.0056,-0.001 -0.0056,0.0138 0,0.0151 0.0024,0.0213 0.0056,0.0138 0.003,-0.008 0.003,-0.02 0,-0.0275 z m 0.182075,-0.0104 c -0.01027,-0.0103 -0.0132,-0.007 -0.0132,0.0132 0,0.0206 0.0029,0.0235 0.0132,0.0132 0.01027,-0.0103 0.01027,-0.0161 0,-0.0264 z m 0.176157,0 c -0.01027,-0.0103 -0.0132,-0.007 -0.0132,0.0132 0,0.0206 0.0029,0.0235 0.0132,0.0132 0.01027,-0.0103 0.01027,-0.0161 0,-0.0264 z m 0.17543,-0.005 c -0.01037,-0.0178 -0.01185,-0.0163 -0.01215,0.0121 -2.43e-4,0.0237 0.003,0.0292 0.01183,0.0203 0.0087,-0.009 0.0088,-0.0179 2.65e-4,-0.0325 z m -1.328156,-0.61082 c 0.02421,-0.011 0.0589,-0.0201 0.07707,-0.0201 0.03387,0 0.09975,0.0277 0.148632,0.0625 0.0236,0.0168 0.02212,0.0125 -0.01034,-0.0299 -0.06729,-0.088 -0.134252,-0.16515 -0.143391,-0.16515 -0.0089,0 -0.09973,0.10878 -0.160938,0.19267 l -0.03213,0.044 0.03854,-0.032 c 0.02119,-0.0176 0.05835,-0.041 0.08257,-0.052 z m 0.194114,-0.27103 c -0.03631,-0.0469 -0.08006,-0.0988 -0.09723,-0.11521 l -0.03122,-0.0299 -0.05017,0.0629 c -0.02759,0.0346 -0.06453,0.0827 -0.08209,0.10696 -0.03108,0.0429 -0.03026,0.0425 0.03044,-0.0138 0.05354,-0.0496 0.06858,-0.0578 0.106222,-0.0578 0.04641,0 0.08533,0.0253 0.148251,0.0963 0.0559,0.0631 0.04379,0.0383 -0.02421,-0.0495 z m -0.129008,-0.31102 c 0.02978,0 0.05503,0.009 0.08249,0.0301 0.0394,0.03 0.03948,0.03 0.01754,0.002 -0.07311,-0.092 -0.09824,-0.1206 -0.106032,-0.1206 -0.0071,0 -0.07222,0.0828 -0.19022,0.24191 -0.0066,0.009 0.02516,-0.022 0.07064,-0.0688 0.0752,-0.0774 0.08653,-0.085 0.125574,-0.085 z m 0.215644,-0.0812 c 0,-0.002 -0.0087,-0.011 -0.01926,-0.0193 -0.01746,-0.0137 -0.01786,-0.0133 -0.0042,0.004 0.01439,0.0183 0.02342,0.0242 0.02342,0.0151 z m -0.0891,-0.1142 c -0.08958,-0.11462 -0.124965,-0.15647 -0.132471,-0.15669 -0.0055,-1.6e-4 -0.09915,0.11747 -0.157422,0.1978 -0.0065,0.009 0.01622,-0.0121 0.0505,-0.0468 0.04954,-0.0502 0.06945,-0.0631 0.09688,-0.0631 0.04991,0 0.08787,0.0233 0.141557,0.087 0.06842,0.0811 0.06906,0.069 0.0011,-0.0182 z m -0.272814,-0.2312 c 0.01371,-0.0175 0.01331,-0.0179 -0.0042,-0.004 -0.01061,0.008 -0.01926,0.017 -0.01926,0.0193 0,0.009 0.009,0.003 0.02342,-0.0151 z m 0.277013,-0.0165 c -0.03986,-0.0521 -0.138305,-0.17341 -0.140716,-0.17341 -0.0028,0 -0.08222,0.10217 -0.115202,0.14825 -0.0088,0.0123 0.0024,0.006 0.02498,-0.0132 0.07333,-0.0637 0.127053,-0.0615 0.192487,0.008 0.03984,0.0423 0.05951,0.0578 0.03846,0.0303 z m -0.0154,-0.30002 c -0.05586,-0.0817 -0.104519,-0.14863 -0.108125,-0.14863 -0.0036,0 -0.02879,0.0282 -0.05596,0.0627 -0.08057,0.10224 -0.08495,0.11049 -0.03836,0.0722 0.07569,-0.0622 0.119435,-0.0476 0.220993,0.0737 0.04084,0.0488 0.07622,0.0887 0.07863,0.0887 0.0024,0 -0.04132,-0.0669 -0.09718,-0.14863 z m -0.370647,-0.0661 c 0.127259,-0.17154 0.190235,-0.24262 0.232934,-0.26288 0.03614,-0.0172 0.04211,-0.0173 0.07302,-10e-4 l 0.03366,0.0174 -0.04719,-0.0718 c -0.02596,-0.0395 -0.04966,-0.0718 -0.05269,-0.0718 -0.003,2e-5 -0.06248,0.0874 -0.132117,0.19414 -0.238945,0.3663 -0.253519,0.39287 -0.107622,0.1962 z m 0.120036,0.10735 c 0.01368,-0.0175 0.01331,-0.0179 -0.0042,-0.004 -0.01061,0.008 -0.01926,0.017 -0.01926,0.0193 0,0.009 0.009,0.003 0.02342,-0.0151 z m 0.152731,-0.71839 c -0.01294,-0.0182 -0.02707,-0.033 -0.03141,-0.033 -0.0043,0 -0.01667,0.0149 -0.02739,0.033 l -0.01953,0.033 h 0.05092 0.05091 z m 0.02201,-0.22676 c 0,-0.0108 -0.04497,-0.0705 -0.05305,-0.0704 -0.0041,8e-5 -0.01871,0.0174 -0.03238,0.0385 l -0.02487,0.0384 h 0.05515 c 0.03034,0 0.05515,-0.003 0.05515,-0.007 z m 0,-0.26423 c 0,-0.0109 -0.04497,-0.0705 -0.05305,-0.0704 -0.0041,7e-5 -0.01871,0.0174 -0.03238,0.0385 l -0.02487,0.0384 h 0.05515 c 0.03034,0 0.05515,-0.003 0.05515,-0.007 z m 0,-0.26423 c 0,-0.0109 -0.04497,-0.0705 -0.05305,-0.0704 -0.0041,8e-5 -0.01871,0.0174 -0.03238,0.0385 l -0.02487,0.0384 h 0.05515 c 0.03034,0 0.05515,-0.003 0.05515,-0.007 z m -0.02928,-0.29071 c -0.02365,-0.04 -0.02924,-0.0407 -0.05203,-0.006 -0.02455,0.0375 -0.02357,0.0389 0.02688,0.0389 h 0.04466 z"
       id="path138125" />
    <path
       style="fill:#0000ff;fill-opacity:0;stroke:#000000;stroke-width:0.0208059;stroke-linejoin:bevel"
       d="m 51.80961,116.41496 v -0.31378 h 5.659032 c 3.112466,0 5.65903,-0.002 5.65903,-0.006 0,-0.003 -0.544986,-0.82298 -1.211077,-1.82209 -0.666091,-0.99911 -1.211077,-1.82163 -1.211077,-1.82783 0,-0.006 0.513514,-0.78033 1.141142,-1.7203 1.523175,-2.2812 1.645397,-2.46321 1.654035,-2.46321 0.0078,0 1.590405,2.36292 2.351418,3.51084 l 0.448041,0.67583 -1.211901,1.81789 -1.211897,1.81789 8.986729,0.006 c 4.9427,0.003 8.987967,0.007 8.98948,0.008 0.0016,10e-4 0.0028,0.14349 0.0028,0.31607 v 0.31378 H 66.832463 51.80961 Z m 11.717165,-0.32084 c 0.05411,-0.009 0.05308,-0.026 -0.0016,-0.026 -0.03813,0 -0.04944,-0.007 -0.102577,-0.0645 -0.03285,-0.0355 -0.08383,-0.0973 -0.113284,-0.13745 -0.08597,-0.11708 -0.07158,-0.0742 0.02244,0.0669 0.124465,0.18679 0.11022,0.17502 0.194977,0.16101 z m 0.02349,-0.25128 c 0.0241,-0.0368 0.02313,-0.0389 -0.01831,-0.0389 -0.01984,0 -0.04709,-0.008 -0.06055,-0.0172 -0.01347,-0.009 -0.02447,-0.0141 -0.02447,-0.0104 0,0.0106 0.06882,0.0936 0.07764,0.0936 0.0043,0 0.0159,-0.0122 0.02569,-0.0271 z m 0.005,-0.27013 0.02442,-0.033 h -0.04075 c -0.0231,0 -0.05029,-0.008 -0.06275,-0.0193 -0.02103,-0.0184 -0.02167,-0.0184 -0.01455,0.001 0.0083,0.0228 0.05346,0.0827 0.06302,0.0836 0.0034,2.7e-4 0.01717,-0.0143 0.03061,-0.0324 z m 0.04136,-0.32221 c 0.07879,-0.11177 0.08129,-0.11888 0.02318,-0.0659 -0.06681,0.0609 -0.10759,0.065 -0.170873,0.0171 -0.02008,-0.0152 -0.03859,-0.0255 -0.04114,-0.023 -0.0075,0.008 0.10717,0.15175 0.120505,0.15155 0.0067,-1e-4 0.03745,-0.036 0.06833,-0.0798 z m -0.03543,-0.24406 c 0.01585,-0.0208 0.02883,-0.0394 0.02883,-0.0414 0,-0.002 -0.02217,-0.002 -0.04924,2.6e-4 -0.03635,0.003 -0.05941,-0.002 -0.08808,-0.0201 -0.02135,-0.0132 -0.03884,-0.02 -0.03884,-0.0152 0,0.0107 0.100754,0.11412 0.111131,0.11412 0.004,0 0.02035,-0.017 0.0362,-0.0378 z m -0.02223,-0.23194 c 0.0048,-0.0125 -0.0019,-0.0165 -0.02769,-0.0165 -0.029,0 -0.03201,0.002 -0.02032,0.0165 0.0075,0.009 0.02,0.0165 0.02769,0.0165 0.0077,0 0.01683,-0.007 0.02032,-0.0165 z m 0.0063,-0.24666 c 0.01252,-0.0176 0.02278,-0.0339 0.02278,-0.0363 0,-0.002 -0.01611,-0.002 -0.03578,-1.9e-4 -0.02514,0.003 -0.04805,-0.004 -0.07707,-0.0239 -0.0227,-0.0154 -0.04129,-0.0252 -0.04129,-0.0216 0,0.0111 0.08969,0.11404 0.09936,0.11404 0.0051,0 0.01947,-0.0144 0.032,-0.032 z m 0,-0.26127 c 0.0307,-0.039 0.02896,-0.0444 -0.01296,-0.0395 -0.02514,0.003 -0.04806,-0.004 -0.07707,-0.0239 -0.0227,-0.0154 -0.04125,-0.0245 -0.04121,-0.0201 1.11e-4,0.0122 0.08847,0.11252 0.09907,0.11252 0.0052,0 0.01963,-0.0131 0.03217,-0.029 z m 0.01005,-0.27781 0.02767,-0.0359 -0.02947,0.007 c -0.04034,0.0101 -0.07646,-5.3e-4 -0.117171,-0.0349 -0.01889,-0.0159 -0.03631,-0.0269 -0.03872,-0.0245 -0.008,0.008 0.106815,0.1315 0.118544,0.12759 0.0063,-0.002 0.02394,-0.02 0.03916,-0.0397 z m -0.01373,-0.24532 0.02098,-0.0237 -0.03301,0.008 c -0.03962,0.01 -0.04289,0.0123 -0.0335,0.0275 0.01077,0.0174 0.02217,0.0144 0.04554,-0.0119 z m -0.03413,-0.4499 c 0,-0.009 -0.01114,-0.0179 -0.02476,-0.0199 -0.02686,-0.004 -0.02825,-0.002 -0.01788,0.0252 0.0084,0.0218 0.04265,0.0176 0.04265,-0.005 z m 0.01664,-0.29711 c 0.0067,0 0.0093,-0.005 0.0058,-0.0104 -0.0035,-0.006 0.0024,-0.0155 0.01312,-0.0217 0.01072,-0.006 0.0155,-0.0115 0.01061,-0.0117 -0.0049,-1.8e-4 -2.64e-4,-0.0149 0.01027,-0.0328 0.01053,-0.0178 0.02334,-0.0299 0.02842,-0.0267 0.0051,0.003 0.0085,0.002 0.0077,-0.003 -0.0039,-0.0225 0.0021,-0.0373 0.0123,-0.0309 0.0062,0.004 0.01058,0.003 0.0097,-0.002 -0.0041,-0.0235 0.0021,-0.0372 0.01373,-0.0301 0.0077,0.005 0.0097,0.003 0.0051,-0.004 -0.0042,-0.007 0.0037,-0.0236 0.01757,-0.0375 0.01384,-0.0138 0.02394,-0.0289 0.02241,-0.0334 -0.0016,-0.005 0.0024,-0.008 0.0089,-0.008 0.0064,0 0.0088,-0.005 0.0053,-0.0103 -0.0035,-0.006 0.0024,-0.0155 0.01312,-0.0217 0.01071,-0.006 0.0155,-0.0115 0.01061,-0.0117 -0.0049,-1.9e-4 -2.65e-4,-0.0149 0.01026,-0.0328 0.01053,-0.0178 0.02334,-0.0298 0.02842,-0.0267 0.0051,0.003 0.0085,0.002 0.0077,-0.003 -0.0036,-0.0208 0.0016,-0.0375 0.01021,-0.0322 0.0051,0.003 0.0092,-5.3e-4 0.0092,-0.008 0,-0.0183 0.03677,-0.0735 0.04898,-0.0735 0.0053,0 0.0085,-0.004 0.007,-0.009 -0.0016,-0.005 0.0066,-0.0263 0.01794,-0.0475 l 0.02069,-0.0387 -0.02878,-0.0456 c -0.01582,-0.0251 -0.03009,-0.0516 -0.03169,-0.0589 -0.0016,-0.007 -0.01175,-0.0226 -0.02257,-0.0339 -0.01082,-0.0113 -0.01625,-0.0261 -0.01206,-0.0329 0.0046,-0.007 0.0026,-0.009 -0.0051,-0.004 -0.01135,0.007 -0.01765,-0.006 -0.01402,-0.0292 7.94e-4,-0.005 -0.0039,-0.008 -0.01034,-0.008 -0.0064,0 -0.0086,-0.005 -0.0048,-0.0111 0.0038,-0.006 -7.94e-4,-0.014 -0.01029,-0.0177 -0.0094,-0.004 -0.01439,-0.0111 -0.01101,-0.0165 0.0034,-0.005 -0.0016,-0.0129 -0.01101,-0.0165 -0.0094,-0.004 -0.01439,-0.0111 -0.01101,-0.0165 0.0034,-0.005 -0.0016,-0.0129 -0.01101,-0.0165 -0.0094,-0.004 -0.01439,-0.0111 -0.01101,-0.0165 0.0034,-0.005 -0.0016,-0.0129 -0.01101,-0.0165 -0.0094,-0.004 -0.0146,-0.0107 -0.01151,-0.0157 0.0031,-0.005 -0.0055,-0.0169 -0.01902,-0.0264 -0.01355,-0.01 -0.02011,-0.0173 -0.01455,-0.0173 0.0056,0 -0.0057,-0.0163 -0.02495,-0.0362 -0.0505,-0.0521 -0.08932,-0.052 -0.135266,2.6e-4 -0.01998,0.0228 -0.0391,0.0414 -0.0425,0.0414 -0.0034,0 -0.0049,0.004 -0.0033,0.009 0.0016,0.005 -0.0046,0.0114 -0.01371,0.0149 -0.0091,0.003 -0.01421,0.0102 -0.01132,0.0148 0.0029,0.005 -0.0058,0.0204 -0.01934,0.035 -0.02603,0.0281 -0.03007,0.0353 -0.03007,0.054 0,0.006 -0.0062,0.008 -0.01376,0.004 -0.0076,-0.004 -0.01024,-0.004 -0.006,7.9e-4 0.0098,0.0109 -0.02093,0.0719 -0.03627,0.0719 -0.0062,0 -0.0084,0.005 -0.0048,0.0106 0.0036,0.006 -0.0035,0.0207 -0.01587,0.033 -0.01233,0.0123 -0.02241,0.0249 -0.02241,0.0279 v 0.0172 c 0,0.006 -0.0057,0.008 -0.0127,0.004 -0.0084,-0.005 -0.0097,-0.003 -0.0038,0.007 0.0056,0.009 0.0013,0.0199 -0.01135,0.0292 -0.01114,0.008 -0.02133,0.0235 -0.02262,0.0341 -0.0013,0.0106 -0.0075,0.0355 -0.01376,0.0553 -0.0082,0.0261 -0.008,0.0339 7.94e-4,0.0285 0.0079,-0.005 0.0097,-0.001 0.0049,0.0114 -0.0049,0.0127 -0.0031,0.0163 0.0055,0.011 0.0086,-0.005 0.0104,-0.002 0.0055,0.011 -0.0049,0.0127 -0.0031,0.0163 0.0055,0.011 0.0086,-0.005 0.0104,-0.002 0.0055,0.011 -0.0049,0.0127 -0.0031,0.0163 0.0055,0.011 0.0086,-0.005 0.0104,-0.002 0.0055,0.011 -0.0049,0.0127 -0.0031,0.0163 0.0055,0.011 0.0086,-0.005 0.0104,-0.002 0.0055,0.011 -0.004,0.0104 -0.0027,0.0161 0.0028,0.0126 0.0097,-0.006 0.02934,0.035 0.02487,0.0519 -0.0013,0.005 0.0031,0.008 0.0095,0.008 0.0064,0 0.0086,0.005 0.0048,0.011 -0.0037,0.006 -0.0013,0.011 0.0055,0.011 0.0068,0 0.0092,0.005 0.0055,0.011 -0.0037,0.006 -7.94e-4,0.011 0.0067,0.011 0.0074,0 0.01061,0.003 0.0071,0.006 -0.0035,0.004 0.0035,0.0163 0.01553,0.0284 0.01206,0.0121 0.01916,0.0293 0.01572,0.0382 -0.0034,0.009 -0.0019,0.0136 0.0034,0.0103 0.0097,-0.006 0.0417,0.0582 0.0368,0.0736 -0.0013,0.005 0.0032,0.008 0.01024,0.008 0.0071,0 0.0099,0.003 0.0064,0.006 -0.0035,0.004 0.0035,0.0163 0.01553,0.0284 0.01206,0.0121 0.01916,0.0293 0.01572,0.0382 -0.004,0.0104 -0.0016,0.0134 0.0065,0.008 0.0086,-0.005 0.0104,-0.002 0.0055,0.011 -0.0043,0.0112 -0.0028,0.0162 0.0036,0.0122 0.0098,-0.006 0.01564,0.008 0.0122,0.0304 -7.94e-4,0.005 0.0045,0.008 0.01154,0.008 0.0071,0 0.0097,0.003 0.0059,0.007 -0.0038,0.004 -0.0016,0.017 0.005,0.0293 0.01135,0.0212 0.01273,0.0206 0.02661,-0.0125 0.008,-0.0191 0.02013,-0.0348 0.02683,-0.0348 z m -1.701562,-0.38779 c -0.02096,-0.0437 -0.0381,-0.0886 -0.0381,-0.0997 0,-0.0111 -0.0049,-0.0172 -0.01101,-0.0134 -0.02154,0.0133 -0.01021,0.056 0.03285,0.12386 0.02402,0.0378 0.04606,0.0688 0.04901,0.0688 0.0029,0 -0.0118,-0.0358 -0.03275,-0.0795 z m -0.209148,-0.15995 c 0.02495,-0.0629 0.100891,-0.20601 0.242499,-0.45691 0.01624,-0.0288 0.02654,-0.0523 0.02291,-0.0523 -0.0069,0 -0.324237,0.47923 -0.333714,0.5039 -0.0063,0.0163 0.01786,0.0796 0.03034,0.0796 0.0047,0 0.02178,-0.0334 0.03798,-0.0743 z m 0.696026,0.0392 c -0.0035,-0.009 -0.0061,-0.006 -0.0066,0.007 -5.29e-4,0.0116 0.0021,0.0181 0.0058,0.0144 0.0037,-0.004 0.004,-0.0131 7.93e-4,-0.0211 z m 0.176157,0 c -0.0035,-0.009 -0.0061,-0.006 -0.0066,0.007 -5.29e-4,0.0116 0.0021,0.0181 0.0058,0.0144 0.0037,-0.004 0.004,-0.0131 7.94e-4,-0.0211 z m 0.689287,-0.042 c 0.0032,-0.0121 0.0013,-0.0193 -0.0042,-0.0159 -0.0055,0.003 -0.01,0.0133 -0.01,0.022 0,0.0228 0.0075,0.0195 0.01421,-0.006 z m 0.3512,-0.67158 c 0.02355,0 0.06294,0.0102 0.0875,0.0228 0.02458,0.0125 0.0467,0.0208 0.04917,0.0183 0.0062,-0.006 -0.119226,-0.15404 -0.135205,-0.15925 -0.01201,-0.004 -0.146137,0.14684 -0.14651,0.16466 -1.11e-4,0.004 0.02286,-0.004 0.05102,-0.0193 0.02918,-0.0155 0.0696,-0.0272 0.09402,-0.0272 z m -0.06915,-0.27953 c 0.02138,-0.0258 0.06954,-0.0284 0.119441,-0.006 0.04256,0.0187 0.04593,0.0189 0.03665,0.002 -0.0056,-0.0103 -0.02974,-0.0376 -0.05361,-0.0607 l -0.04339,-0.042 -0.03659,0.0475 c -0.02014,0.0261 -0.04124,0.0537 -0.04691,0.0613 -0.01447,0.0193 0.0083,0.0179 0.02439,-0.002 z m 0.0026,-0.26784 c 0.02045,-0.0175 0.06797,-0.0215 0.107405,-0.009 l 0.02638,0.008 -0.02315,-0.0325 c -0.04709,-0.0661 -0.05578,-0.0678 -0.09753,-0.0193 -0.04704,0.0547 -0.06753,0.0887 -0.04611,0.0764 0.0082,-0.005 0.02305,-0.0155 0.03302,-0.0241 z m 0.09152,-0.27234 c 0.024,0.008 0.04464,0.014 0.04588,0.0127 0.0013,-10e-4 -0.0172,-0.0245 -0.04098,-0.0518 l -0.04325,-0.0495 -0.03825,0.044 c -0.04764,0.0548 -0.04818,0.0634 -0.0028,0.0445 0.03015,-0.0126 0.04265,-0.0126 0.0794,6e-5 z m -0.02021,-0.26738 0.0477,0.005 -0.02127,-0.0299 c -0.04185,-0.0588 -0.04986,-0.0601 -0.08722,-0.0148 -0.04,0.0485 -0.04355,0.0643 -0.01053,0.0466 0.01299,-0.007 0.0451,-0.0102 0.07133,-0.007 z m 0.05549,-0.2774 -0.06067,-0.0891 -0.03768,0.0469 c -0.05402,0.0673 -0.06011,0.0795 -0.03214,0.0645 0.04528,-0.0242 0.08847,-0.0144 0.137281,0.0311 0.02545,0.0238 0.048,0.0415 0.05009,0.0394 0.0021,-0.002 -0.02352,-0.0439 -0.05688,-0.0929 z m -0.185499,-0.18635 c 0.06627,-0.0768 0.112493,-0.10569 0.152712,-0.0956 0.02717,0.007 0.02719,0.007 0.0087,-0.0246 -0.02829,-0.0479 -0.05821,-0.0853 -0.06344,-0.0794 -0.0095,0.0108 -0.202258,0.30314 -0.210436,0.31912 -0.0094,0.0184 0.02471,-0.0179 0.112514,-0.11957 z m 0.145145,-0.4072 c 0,-0.005 -0.01035,-0.0187 -0.02302,-0.0301 -0.02259,-0.0204 -0.02331,-0.0204 -0.03853,5.3e-4 -0.02339,0.032 -0.01924,0.039 0.02302,0.039 0.02119,0 0.03853,-0.004 0.03853,-0.009 z m -5.29e-4,-0.26203 c 0.0027,-0.002 -0.0062,-0.0155 -0.01976,-0.029 l -0.02463,-0.0245 -0.02066,0.0272 c -0.01138,0.015 -0.01812,0.0314 -0.01498,0.0364 0.0052,0.008 0.06864,2.7e-4 0.08005,-0.0102 z m 0,-0.26423 c 0.0027,-0.002 -0.0062,-0.0155 -0.01976,-0.029 l -0.02463,-0.0245 -0.02066,0.0272 c -0.01138,0.015 -0.01812,0.0314 -0.01498,0.0364 0.0052,0.008 0.06864,2.6e-4 0.08005,-0.0102 z m 0,-0.26424 c 0.0027,-0.002 -0.0062,-0.0155 -0.01976,-0.029 l -0.02463,-0.0245 -0.02066,0.0272 c -0.01138,0.015 -0.01812,0.0314 -0.01498,0.0364 0.0052,0.008 0.06864,2.7e-4 0.08005,-0.0102 z m -0.0104,-0.25503 c 0,-0.005 -0.0071,-0.0185 -0.01585,-0.0303 -0.01521,-0.0205 -0.01664,-0.0206 -0.03578,-0.002 -0.01738,0.0171 -0.01783,0.021 -0.0034,0.0301 0.02029,0.0128 0.05505,0.014 0.05505,0.002 z"
       id="path138164" />
    <path
       style="fill:#0000ff;fill-opacity:0;stroke:#000000;stroke-width:0.0208059;stroke-linejoin:bevel"
       d="m 51.80961,116.41456 v -0.32519 l 5.653648,0.003 c 3.95165,0.002 5.65231,-2.7e-4 5.649203,-0.008 -0.0035,-0.009 -2.105395,-3.17192 -2.353817,-3.54182 l -0.06469,-0.0963 1.357789,-2.03407 c 1.402053,-2.10038 1.435306,-2.14967 1.45025,-2.14967 0.02225,0 2.799879,4.1696 2.793605,4.19359 -0.0026,0.01 -0.544994,0.8285 -1.205296,1.81893 l -1.200547,1.80077 5.968852,0.007 c 3.282871,0.004 7.325122,0.007 8.982784,0.007 h 3.013927 v 0.32479 0.32479 H 66.832463 51.80961 Z m 11.730929,-0.33539 c -0.0038,-0.006 -0.01675,-0.011 -0.0289,-0.011 -0.03622,0 -0.0589,-0.0176 -0.120245,-0.0932 -0.03207,-0.0395 -0.06038,-0.0698 -0.06291,-0.0673 -0.0047,0.005 0.07475,0.12778 0.105278,0.16319 0.01807,0.021 0.11948,0.0288 0.106778,0.008 z m 0.0057,-0.23698 c 0.01741,-0.021 0.01151,-0.0269 -0.03788,-0.0381 -0.04575,-0.0103 -0.04827,-0.006 -0.01548,0.0294 0.02818,0.03 0.03478,0.0311 0.05335,0.009 z m 0.005,-0.27223 c 0.01707,-0.0242 0.01656,-0.0249 -0.02416,-0.0306 -0.02289,-0.003 -0.04351,-0.005 -0.04584,-0.003 -0.0073,0.005 0.03171,0.0585 0.04241,0.0585 0.0056,0 0.01799,-0.0111 0.02759,-0.0248 z m 0.03077,-0.30733 c 0.04151,-0.0566 0.04725,-0.0831 0.0109,-0.0504 -0.03498,0.0315 -0.0761,0.0346 -0.119684,0.009 -0.02204,-0.013 -0.0416,-0.0221 -0.04349,-0.0202 -0.0067,0.007 0.08643,0.11856 0.09853,0.1184 0.0067,-9e-5 0.03094,-0.0256 0.05375,-0.0567 z m -0.03385,-0.24866 c 0.0334,-0.0389 0.03137,-0.0433 -0.02029,-0.0441 -0.02769,-5.3e-4 -0.05574,-0.006 -0.06233,-0.0128 -0.0066,-0.007 -0.01696,-0.012 -0.02302,-0.012 -0.0061,0 0.0083,0.0198 0.03196,0.044 0.04905,0.0502 0.0512,0.051 0.07369,0.0248 z m -0.0254,-0.24575 c -0.01767,-0.0109 -0.02572,-0.005 -0.01558,0.0113 0.004,0.007 0.01252,0.009 0.01879,0.005 0.0074,-0.005 0.0063,-0.0102 -0.0032,-0.0161 z m 0.01416,-0.23764 c 0.02889,-0.0261 0.02495,-0.0368 -0.01363,-0.0368 -0.01857,0 -0.04334,-0.005 -0.05505,-0.0114 -0.03002,-0.0161 -0.02643,-7.9e-4 0.0083,0.0356 0.03474,0.0363 0.03439,0.0362 0.06038,0.0126 z m 0,-0.26423 c 0.0292,-0.0264 0.02516,-0.0339 -0.02114,-0.0394 -0.0227,-0.003 -0.05119,-0.009 -0.06331,-0.0138 -0.0154,-0.006 -0.01058,0.003 0.01593,0.0312 0.02088,0.0221 0.0403,0.0402 0.04317,0.0402 0.0029,0 0.01429,-0.008 0.02537,-0.0182 z m 0,-0.26424 c 0.02931,-0.0265 0.02484,-0.0368 -0.01595,-0.0368 -0.01984,0 -0.0471,-0.008 -0.06055,-0.0171 -0.03558,-0.0249 -0.02996,-0.006 0.01072,0.0359 0.04089,0.0422 0.03956,0.0418 0.06578,0.0181 z m -0.0074,-0.25702 c 0.0037,-0.006 0.0019,-0.011 -0.0042,-0.011 -0.0061,0 -0.01408,0.005 -0.01781,0.011 -0.0037,0.006 -0.0019,0.011 0.0042,0.011 0.0061,0 0.01408,-0.005 0.01781,-0.011 z m -0.02752,-0.4514 c 0,-0.006 -0.0074,-0.011 -0.01651,-0.011 -0.0091,0 -0.01651,0.005 -0.01651,0.011 0,0.006 0.0074,0.011 0.01651,0.011 0.0091,0 0.01651,-0.005 0.01651,-0.011 z m 0.0038,-0.28626 c 0.01074,-0.0182 0.01551,-0.0332 0.01064,-0.0334 -0.0049,-1.8e-4 -1.08e-4,-0.005 0.01061,-0.0117 0.01072,-0.006 0.01662,-0.016 0.01312,-0.0217 -0.0035,-0.006 -7.93e-4,-0.0103 0.0059,-0.0103 0.0068,0 0.0094,-0.005 0.0058,-0.0105 -0.0035,-0.006 0.0034,-0.0157 0.01545,-0.0222 0.01328,-0.007 0.01937,-0.0184 0.01548,-0.0285 -0.0041,-0.0106 -7.94e-4,-0.0156 0.0087,-0.0136 0.0092,0.002 0.01381,-0.004 0.01183,-0.0162 -0.0019,-0.0113 0.0027,-0.0182 0.01101,-0.0165 0.0085,0.002 0.01286,-0.005 0.01079,-0.0174 -0.0019,-0.0112 0.0013,-0.0174 0.0071,-0.0139 0.01138,0.007 0.04965,-0.0444 0.04965,-0.0668 0,-0.007 0.0069,-0.0163 0.01537,-0.0195 0.0085,-0.003 0.0123,-0.0109 0.0085,-0.017 -0.0038,-0.006 -0.0013,-0.0111 0.0055,-0.0111 0.0068,0 0.0094,-0.005 0.0058,-0.0105 -0.0035,-0.006 0.0034,-0.0157 0.01545,-0.0222 0.01328,-0.007 0.01937,-0.0184 0.01548,-0.0285 -0.0041,-0.0106 -7.94e-4,-0.0156 0.0087,-0.0136 0.0083,0.002 0.01378,-0.003 0.01217,-0.0112 -0.0034,-0.0163 0.02739,-0.0646 0.03758,-0.059 0.01638,0.009 0.04536,-0.0578 0.04155,-0.0957 -0.0062,-0.0621 -0.0076,-0.067 -0.01746,-0.061 -0.0084,0.005 -0.01373,-0.0109 -0.01048,-0.0314 7.93e-4,-0.005 -0.0045,-0.008 -0.01154,-0.008 -0.0071,0 -0.0097,-0.003 -0.0059,-0.007 0.01135,-0.0113 -0.01431,-0.0494 -0.02773,-0.0411 -0.0081,0.005 -0.0099,10e-4 -0.0051,-0.0111 0.0044,-0.0116 0.0011,-0.0211 -0.0091,-0.025 -0.0089,-0.003 -0.01392,-0.0101 -0.01103,-0.0147 0.0071,-0.0115 -0.10785,-0.18296 -0.156337,-0.23329 -0.0445,-0.0462 -0.06349,-0.0466 -0.121391,-0.002 -0.04818,0.0367 -0.146717,0.18777 -0.137756,0.21113 0.0039,0.0103 0.0019,0.0141 -0.0051,0.01 -0.01259,-0.008 -0.04327,0.0221 -0.03313,0.0323 0.0034,0.003 -0.0032,0.0155 -0.01468,0.027 -0.0117,0.0117 -0.01794,0.0284 -0.01426,0.0381 0.0042,0.0109 0.0013,0.016 -0.008,0.014 -0.008,-0.002 -0.01532,0.004 -0.01619,0.0133 -0.0038,0.0398 -0.0057,0.0439 -0.01871,0.0413 -0.0084,-0.002 -0.0127,0.007 -0.01103,0.0226 0.0016,0.014 -0.0016,0.0228 -0.0067,0.0196 -0.0052,-0.003 -0.0072,0.008 -0.0046,0.0241 0.0037,0.0234 0.0021,0.0264 -0.0069,0.0134 -0.02223,-0.0314 -0.01193,7.9e-4 0.02135,0.0668 0.01836,0.0364 0.03767,0.0635 0.04289,0.0603 0.01233,-0.008 0.02506,0.0255 0.01564,0.0408 -0.0046,0.007 -0.0019,0.008 0.0073,0.003 0.01066,-0.007 0.01265,-0.004 0.0073,0.01 -0.0043,0.0112 -0.0028,0.0162 0.0036,0.0122 0.01138,-0.007 0.01201,-0.006 0.01638,0.0377 0.0016,0.0147 0.0099,0.032 0.01884,0.0385 0.0089,0.007 0.01405,0.0181 0.01151,0.0256 -0.0026,0.008 0.0034,0.0168 0.0132,0.0206 0.01752,0.007 0.05164,0.0613 0.04886,0.0782 -0.0036,0.0221 0.0021,0.0368 0.0122,0.0306 0.01,-0.006 0.01585,0.009 0.01217,0.0307 -0.0029,0.0176 0.0223,0.0523 0.03316,0.0455 0.0062,-0.004 0.01026,-2.3e-4 0.0092,0.008 -0.0041,0.03 7.94e-4,0.0644 0.0092,0.0644 0.0047,0 0.01741,-0.0149 0.02815,-0.033 z m -1.715066,-0.46324 c -0.009,-0.0207 -0.01656,-0.0293 -0.0168,-0.0189 -5.29e-4,0.0234 0.02503,0.0811 0.02971,0.067 0.0019,-0.006 -0.0039,-0.0273 -0.01291,-0.048 z m -0.174011,-0.11203 c 0.01974,-0.0439 0.06804,-0.13916 0.107346,-0.21169 0.0393,-0.0725 0.07136,-0.13695 0.07122,-0.14313 -5.3e-4,-0.0209 -0.241978,0.35673 -0.241978,0.37836 0,0.0264 0.01087,0.0563 0.02045,0.0563 0.0039,0 0.02323,-0.0359 0.04296,-0.0798 z m 1.830276,-0.64131 c 0.03595,-0.0206 0.106677,-0.0206 0.164637,-1.8e-4 l 0.0463,0.0163 -0.04369,-0.0521 c -0.02402,-0.0287 -0.05473,-0.062 -0.06823,-0.0741 l -0.02455,-0.022 -0.05924,0.0661 c -0.07367,0.0822 -0.07827,0.1021 -0.01524,0.0661 z m 0.126595,-0.34035 c -0.03739,-0.049 -0.05355,-0.0541 -0.07975,-0.0249 -0.04112,0.0457 -0.04131,0.0535 -0.0011,0.046 0.02027,-0.004 0.04925,-0.002 0.06439,0.004 0.04452,0.0178 0.04671,0.0144 0.01651,-0.0252 z m -0.04127,-0.24215 c 0.04119,8e-4 0.04263,-0.003 0.01439,-0.0368 -0.02661,-0.0319 -0.03436,-0.0312 -0.07013,0.006 -0.03609,0.0377 -0.03768,0.0506 -0.0048,0.0389 0.01363,-0.005 0.04088,-0.009 0.06056,-0.008 z m 0.02217,-0.2895 -0.04077,-0.0408 -0.02786,0.0262 c -0.03636,0.0341 -0.03529,0.0477 0.0031,0.0393 0.01701,-0.004 0.04303,-0.002 0.0578,0.004 0.04767,0.019 0.04932,0.0129 0.0078,-0.0286 z m 0.0024,-0.24379 c -1.33e-4,-0.004 -0.0098,-0.0196 -0.02156,-0.0347 l -0.02133,-0.0275 -0.0354,0.0352 -0.0354,0.0352 0.05697,-5.3e-4 c 0.03133,-2.4e-4 0.05686,-0.004 0.05673,-0.008 z m 0.04856,-0.22465 c -0.0082,-0.0141 -0.07113,-0.10937 -0.07735,-0.11716 -0.0041,-0.005 -0.04345,0.0398 -0.0602,0.0687 -0.01058,0.0182 -0.0086,0.0196 0.01945,0.0136 0.02249,-0.005 0.04359,0.001 0.07529,0.0206 0.05127,0.0318 0.05348,0.0325 0.04281,0.0142 z m -0.139113,-0.29912 c 0.01365,-0.0115 0.04221,-0.0238 0.06349,-0.0274 l 0.03869,-0.007 -0.02811,-0.0413 c -0.01545,-0.0227 -0.03238,-0.0413 -0.03759,-0.0413 -0.0083,0 -0.126828,0.17598 -0.148299,0.2202 -0.0044,0.009 0.01336,-0.006 0.0395,-0.0331 0.02614,-0.0273 0.05868,-0.0591 0.07232,-0.0706 z m 0.05567,-0.35451 c -0.0098,-0.01 -0.02326,-0.0145 -0.02988,-0.0104 -0.02186,0.0135 -0.01259,0.0282 0.01781,0.0282 0.02754,0 0.02848,-0.001 0.01206,-0.0178 z m 0.0131,-0.24422 c 0,-0.0112 -0.02376,-0.0352 -0.03484,-0.0352 -0.0046,0 -0.01373,0.01 -0.02021,0.022 -0.01058,0.0198 -0.0084,0.022 0.02164,0.022 0.01839,0 0.03342,-0.004 0.03342,-0.009 z m 0,-0.26423 c 0,-0.0112 -0.02376,-0.0352 -0.03484,-0.0352 -0.0046,0 -0.01373,0.01 -0.02021,0.022 -0.01058,0.0198 -0.0084,0.022 0.02164,0.022 0.01839,0 0.03342,-0.004 0.03342,-0.009 z m 0,-0.26424 c 0,-0.0112 -0.02376,-0.0352 -0.03484,-0.0352 -0.0046,0 -0.01373,0.01 -0.02021,0.022 -0.01058,0.0198 -0.0084,0.022 0.02164,0.022 0.01839,0 0.03342,-0.004 0.03342,-0.009 z m -0.01376,-0.26919 c -0.0026,-0.008 -0.01119,-0.0138 -0.01926,-0.0138 -0.0081,0 -0.01675,0.006 -0.01926,0.0138 -0.0027,0.008 0.0051,0.0138 0.01926,0.0138 0.01418,0 0.02199,-0.006 0.01926,-0.0138 z"
       id="path138203" />
    <path
       style="fill:#0000ff;fill-opacity:0;stroke:#000000;stroke-width:0.0786365;stroke-linejoin:bevel"
       d=""
       id="path138242"
       transform="scale(0.26458333)" />
    <path
       style="fill:#0000ff;fill-opacity:0;stroke:#000000;stroke-width:0.0786365;stroke-linejoin:bevel"
       d=""
       id="path138281"
       transform="scale(0.26458333)" />
    <path
       style="fill:#0000ff;fill-opacity:0;stroke:#000000;stroke-width:0.0208059;stroke-linejoin:bevel"
       d="m 63.479748,111.73063 c 0.01281,-0.018 0.02832,-0.0358 0.03447,-0.0396 0.0123,-0.008 0.04996,0.0225 0.06626,0.0529 0.0094,0.0175 0.0039,0.0194 -0.05682,0.0194 h -0.0672 z"
       id="path138320" />
    <path
       style="fill:#0000ff;fill-opacity:0;stroke:#000000;stroke-width:0.0208059;stroke-linejoin:bevel"
       d="m 63.448199,112.57171 c -0.03148,-0.0665 -0.04563,-0.10904 -0.04064,-0.12216 0.01154,-0.0303 0.106249,-0.18997 0.116451,-0.19628 0.01037,-0.006 0.121309,0.16247 0.120735,0.1838 -2.12e-4,0.008 -0.03366,0.0644 -0.07432,0.12552 l -0.07393,0.11115 z"
       id="path138359" />
    <path
       style="fill:#0000ff;fill-opacity:0;stroke:#000000;stroke-width:0.0208059;stroke-linejoin:bevel"
       d="m 63.457235,112.54885 -0.03673,-0.0842 0.04305,-0.0815 c 0.02368,-0.0448 0.04891,-0.0863 0.05606,-0.0922 0.0093,-0.008 0.02577,0.009 0.05825,0.0608 0.0249,0.0394 0.04525,0.0772 0.04525,0.084 0,0.0125 -0.116986,0.19738 -0.124881,0.19738 -0.0024,0 -0.0208,-0.0379 -0.041,-0.0842 z"
       id="path138398" />
    <path
       style="fill:#0000ff;fill-opacity:0;stroke:#000000;stroke-width:0.0208059;stroke-linejoin:bevel"
       d="m 63.466969,112.52695 -0.02683,-0.0621 0.03702,-0.0697 c 0.02035,-0.0383 0.04127,-0.0723 0.04647,-0.0756 0.0096,-0.006 0.07746,0.0955 0.07746,0.1158 0,0.016 -0.0884,0.1537 -0.09867,0.1537 -0.0047,0 -0.02069,-0.028 -0.03545,-0.0621 z"
       id="path138437" />
    <path
       style="fill:#0000ff;fill-opacity:0;stroke:#000000;stroke-width:0.0208059;stroke-linejoin:bevel"
       d="m 63.480587,112.51317 -0.02387,-0.0468 0.03138,-0.0556 c 0.01725,-0.0305 0.0354,-0.0562 0.0403,-0.057 0.0049,-7.9e-4 0.01955,0.0169 0.03254,0.0393 0.02305,0.0398 0.02315,0.0417 0.0039,0.0771 -0.01082,0.02 -0.02886,0.0483 -0.04006,0.063 l -0.02037,0.0267 z"
       id="path138476" />
    <path
       style="fill:#0000ff;fill-opacity:0;stroke:#000000;stroke-width:0.0208059;stroke-linejoin:bevel"
       d="m 63.489517,112.49663 c -0.01085,-0.0238 -0.0095,-0.0352 0.008,-0.0681 0.02769,-0.052 0.035,-0.0553 0.05004,-0.0222 0.01373,0.0302 -0.0011,0.0824 -0.02993,0.10647 -0.01185,0.01 -0.01783,0.006 -0.02809,-0.0161 z"
       id="path138515" />
    <path
       style="fill:#0000ff;fill-opacity:0;stroke:#000000;stroke-width:0.0786365;stroke-linejoin:bevel"
       d=""
       id="path138554"
       transform="scale(0.26458333)" />
    <path
       style="fill:#0000ff;fill-opacity:0;stroke:#000000;stroke-width:0.0786365;stroke-linejoin:bevel"
       d=""
       id="path138593"
       transform="scale(0.26458333)" />
    <path
       style="fill:none;stroke:#000000;stroke-width:0.264583px;stroke-linecap:butt;stroke-linejoin:miter;stroke-opacity:1"
       d="m 90.074533,116.44033 -2.64583,-3.96875 2.64583,-3.96875 2.64583,3.96875 z"
       id="path137189-0" />
    <path
       style="fill:#0000ff;fill-opacity:0;stroke:#000000;stroke-width:0.166447;stroke-linejoin:bevel"
       d="m 88.852153,114.26755 -1.19415,-1.7918 1.21131,-1.81755 1.21132,-1.81754 1.21024,1.81595 1.21024,1.81594 -1.16827,1.75685 c -0.64254,0.96627 -1.19488,1.7733 -1.2274,1.7934 -0.0325,0.0201 -0.5965,-0.76976 -1.25329,-1.75525 z"
       id="path137228-6" />
    <path
       style="fill:#0000ff;fill-opacity:0;stroke:#000000;stroke-width:0.166447;stroke-linejoin:bevel"
       d="m 88.942273,114.13504 -1.11005,-1.65635 1.12422,-1.68694 1.12422,-1.68695 1.1221,1.68378 1.1221,1.68377 -1.07994,1.62471 c -0.59397,0.89359 -1.10529,1.64037 -1.13627,1.65952 -0.031,0.0192 -0.55586,-0.71054 -1.16638,-1.62154 z"
       id="path137267-8" />
    <path
       style="fill:#0000ff;fill-opacity:0;stroke:#000000;stroke-width:0.166447;stroke-linejoin:bevel"
       d="m 89.032593,114.00226 -1.0258,-1.52114 1.03696,-1.55609 1.03695,-1.5561 1.03395,1.55159 1.03394,1.5516 -0.99157,1.49256 c -0.54536,0.82091 -1.01566,1.50745 -1.0451,1.52564 -0.0294,0.0182 -0.51514,-0.65143 -1.07933,-1.48806 z"
       id="path137306-9" />
    <path
       style="fill:#0000ff;fill-opacity:0;stroke:#000000;stroke-width:0.166447;stroke-linejoin:bevel"
       d="m 89.733703,114.76514 c -0.25751,-0.35582 -1.29929,-1.8811 -1.49137,-2.18355 -0.0339,-0.0534 0.36588,-0.73862 0.88839,-1.52279 l 0.95003,-1.42576 0.94577,1.4194 0.94578,1.4194 -0.90011,1.35583 c -0.49506,0.74571 -0.93062,1.35584 -0.96791,1.35584 -0.0373,0 -0.20405,-0.18827 -0.37058,-0.41837 z"
       id="path137345-2" />
    <path
       style="fill:#0000ff;fill-opacity:0;stroke:#000000;stroke-width:0.166447;stroke-linejoin:bevel"
       d="m 89.915713,114.76514 c -0.32126,-0.37213 -1.47964,-2.12876 -1.47964,-2.24381 0,-0.0699 0.36921,-0.6902 0.82046,-1.37849 l 0.82047,-1.25144 0.85949,1.29005 0.85949,1.29005 -0.81175,1.22389 c -0.44646,0.67314 -0.83958,1.22389 -0.8736,1.22389 -0.034,0 -0.12173,-0.0694 -0.19492,-0.15414 z"
       id="path137384-6" />
    <path
       style="fill:#0000ff;fill-opacity:0;stroke:#000000;stroke-width:0.166447;stroke-linejoin:bevel"
       d="m 89.322513,113.68392 c -0.39066,-0.58443 -0.71028,-1.10694 -0.71028,-1.16114 0,-0.16823 1.43885,-2.36578 1.50248,-2.29472 0.0331,0.0369 0.3855,0.55622 0.78321,1.15402 l 0.72311,1.08691 -0.72676,1.09714 c -0.39972,0.60342 -0.75707,1.11586 -0.79411,1.13876 -0.0371,0.0229 -0.38699,-0.43654 -0.77765,-1.02097 z"
       id="path137423-6" />
    <path
       style="fill:#0000ff;fill-opacity:0;stroke:#000000;stroke-width:0.166447;stroke-linejoin:bevel"
       d="m 89.410943,113.55084 c -0.34241,-0.51206 -0.62256,-0.98053 -0.62256,-1.04105 0,-0.14283 1.205,-1.99516 1.29592,-1.99209 0.0381,10e-4 0.36308,0.43574 0.72215,0.96545 l 0.65286,0.96311 -0.64537,0.97606 c -0.35496,0.53683 -0.67577,0.99484 -0.71291,1.0178 -0.0371,0.023 -0.34768,-0.37722 -0.69009,-0.88928 z"
       id="path137462-4" />
    <path
       style="fill:#0000ff;fill-opacity:0;stroke:#000000;stroke-width:0.166447;stroke-linejoin:bevel"
       d="m 89.499453,113.41739 c -0.2942,-0.43983 -0.53491,-0.84779 -0.53491,-0.90656 0,-0.14181 1.03018,-1.73123 1.1221,-1.73123 0.0394,0 0.3243,0.37537 0.63312,0.83416 l 0.56149,0.83416 -0.55566,0.84269 c -0.30562,0.46348 -0.58617,0.86155 -0.62345,0.88459 -0.0373,0.023 -0.30849,-0.31797 -0.60269,-0.75781 z"
       id="path137501-9" />
    <path
       style="fill:#0000ff;fill-opacity:0;stroke:#000000;stroke-width:0.166447;stroke-linejoin:bevel"
       d="m 89.588053,113.28334 c -0.24604,-0.36787 -0.44735,-0.71508 -0.44734,-0.77158 10e-6,-0.13858 0.85619,-1.46793 0.94543,-1.46793 0.0389,0 0.2839,0.31579 0.54448,0.70175 l 0.47378,0.70175 -0.46632,0.71031 c -0.25648,0.39066 -0.49701,0.72926 -0.5345,0.75243 -0.0375,0.0232 -0.26948,-0.25886 -0.51553,-0.62673 z"
       id="path137540-5" />
    <path
       style="fill:#0000ff;fill-opacity:0;stroke:#000000;stroke-width:0.166447;stroke-linejoin:bevel"
       d="m 89.667243,113.14405 c -0.19271,-0.29817 -0.35001,-0.58552 -0.34955,-0.63856 10e-4,-0.14407 0.68677,-1.19742 0.77928,-1.19742 0.044,0 0.2484,0.25851 0.45425,0.57446 l 0.37428,0.57447 -0.40867,0.61459 c -0.22477,0.33802 -0.42904,0.61459 -0.45394,0.61459 -0.0249,0 -0.20293,-0.24396 -0.39565,-0.54213 z"
       id="path137579-0" />
    <path
       style="fill:#0000ff;fill-opacity:0;stroke:#000000;stroke-width:0.166447;stroke-linejoin:bevel"
       d="m 89.774803,113.04159 c -0.15498,-0.25572 -0.28179,-0.50481 -0.28179,-0.55352 0,-0.13741 0.51458,-0.91577 0.60543,-0.91577 0.0444,0 0.20849,0.19894 0.36452,0.44209 l 0.28369,0.4421 -0.34503,0.52502 -0.34503,0.52503 z"
       id="path137618-4" />
    <path
       style="fill:#0000ff;fill-opacity:0;stroke:#000000;stroke-width:0.166447;stroke-linejoin:bevel"
       d="m 89.844313,112.86567 -0.20578,-0.38789 0.17026,-0.29153 c 0.23415,-0.40093 0.33794,-0.40884 0.56405,-0.043 l 0.19463,0.31493 -0.25869,0.39769 -0.25869,0.39769 z"
       id="path137657-8" />
    <path
       style="fill:#0000ff;fill-opacity:0;stroke:#000000;stroke-width:0.0208059;stroke-linejoin:bevel"
       d="m 89.901673,112.78235 c -0.0855,-0.16162 -0.15544,-0.29791 -0.15544,-0.30287 0,-0.0107 0.16251,-0.28811 0.2166,-0.36974 0.0423,-0.0639 0.11887,-0.14659 0.13567,-0.14659 0.006,0 0.0312,0.0182 0.0559,0.0405 0.044,0.0397 0.12097,0.15057 0.24462,0.35217 l 0.0619,0.10096 -0.19899,0.3064 c -0.10944,0.16852 -0.20029,0.30788 -0.2019,0.30969 -0.002,0.002 -0.0729,-0.12895 -0.15837,-0.29057 z"
       id="path137696-7" />
    <path
       style="fill:#0000ff;fill-opacity:0;stroke:#000000;stroke-width:0.0208059;stroke-linejoin:bevel"
       d="m 90.019943,112.96652 c -0.0827,-0.15193 -0.2256,-0.42676 -0.23962,-0.46097 -0.0144,-0.035 -0.0128,-0.0387 0.0972,-0.22219 0.10181,-0.16998 0.19714,-0.29819 0.22172,-0.29819 0.0304,0 0.14485,0.15296 0.28953,0.38703 l 0.0521,0.0843 -0.17796,0.27356 c -0.0979,0.15045 -0.18362,0.28165 -0.19054,0.29155 -0.0107,0.0153 -0.0185,0.007 -0.0524,-0.055 z"
       id="path137735-1" />
    <path
       style="fill:#0000ff;fill-opacity:0;stroke:#000000;stroke-width:0.0208059;stroke-linejoin:bevel"
       d="m 89.927483,112.75506 c -0.0708,-0.13379 -0.13129,-0.253 -0.1344,-0.2649 -0.01,-0.0363 0.27231,-0.48297 0.30469,-0.48297 0.0232,0 0.1682,0.19721 0.28082,0.38192 l 0.0416,0.0682 -0.17306,0.26502 c -0.0952,0.14577 -0.17707,0.26751 -0.18197,0.27054 -0.005,0.003 -0.0668,-0.10397 -0.13763,-0.23776 z"
       id="path137774-7" />
    <path
       style="fill:#0000ff;fill-opacity:0;stroke:#000000;stroke-width:0.0208059;stroke-linejoin:bevel"
       d="m 89.985063,112.82466 c -0.0391,-0.0711 -0.0946,-0.17642 -0.12336,-0.23394 l -0.0524,-0.10457 0.0417,-0.081 c 0.0498,-0.0967 0.23301,-0.3759 0.24669,-0.3759 0.0255,0 0.30357,0.41021 0.29437,0.43418 -0.0116,0.0301 -0.31846,0.49064 -0.32697,0.49064 -0.005,0 -0.041,-0.0582 -0.0801,-0.12937 z"
       id="path137813-2" />
    <path
       style="fill:#0000ff;fill-opacity:0;stroke:#000000;stroke-width:0.0208059;stroke-linejoin:bevel"
       d="m 89.997613,112.80815 c -0.0341,-0.0621 -0.0866,-0.15915 -0.11681,-0.21574 l -0.0549,-0.10289 0.0496,-0.0896 c 0.0705,-0.12742 0.20918,-0.33765 0.22277,-0.33765 0.0254,0 0.26921,0.35851 0.26921,0.39592 0,0.0187 -0.2891,0.46284 -0.30124,0.46284 -0.004,0 -0.0346,-0.0508 -0.0687,-0.11285 z"
       id="path137852-7" />
    <path
       style="fill:#0000ff;fill-opacity:0;stroke:#000000;stroke-width:0.0208059;stroke-linejoin:bevel"
       d="m 90.057383,112.87467 c -0.006,-0.008 -0.057,-0.0976 -0.11236,-0.1994 l -0.10075,-0.18517 0.0519,-0.0901 c 0.062,-0.10765 0.16516,-0.26973 0.18853,-0.29621 0.0156,-0.0177 0.019,-0.0162 0.0496,0.022 0.0407,0.0507 0.14847,0.21048 0.18877,0.2798 l 0.03,0.0516 -0.0685,0.108 c -0.0772,0.12172 -0.19598,0.30168 -0.20779,0.31489 -0.004,0.005 -0.0131,0.002 -0.0194,-0.005 z"
       id="path137891-2" />
    <path
       style="fill:#0000ff;fill-opacity:0;stroke:#000000;stroke-width:0.0208059;stroke-linejoin:bevel"
       d="m 90.039943,112.80924 c -0.0584,-0.10058 -0.17256,-0.31247 -0.17258,-0.32021 -2e-5,-0.008 0.14315,-0.24584 0.19865,-0.33031 0.0149,-0.0226 0.032,-0.0397 0.038,-0.0379 0.0135,0.004 0.22553,0.3167 0.22563,0.3328 7e-5,0.0105 -0.23208,0.37205 -0.25306,0.39413 -0.005,0.005 -0.0214,-0.0122 -0.0367,-0.0385 z"
       id="path137930-2" />
    <path
       style="fill:#0000ff;fill-opacity:0;stroke:#000000;stroke-width:0.0208059;stroke-linejoin:bevel"
       d="m 90.007293,112.71568 c -0.0334,-0.0597 -0.0742,-0.1361 -0.0907,-0.16987 l -0.03,-0.0614 0.0691,-0.11441 c 0.038,-0.0629 0.0861,-0.14096 0.10685,-0.1734 l 0.0377,-0.059 0.0712,0.1027 c 0.11393,0.16432 0.13893,0.20635 0.13257,0.22292 -0.008,0.0208 -0.20475,0.3271 -0.2223,0.34605 -0.0113,0.0122 -0.0248,-0.005 -0.0745,-0.0936 z"
       id="path137969-6" />
    <path
       style="fill:#0000ff;fill-opacity:0;stroke:#000000;stroke-width:0.0208059;stroke-linejoin:bevel"
       d="m 90.030103,112.71951 c -0.0778,-0.13497 -0.12096,-0.2282 -0.11404,-0.24624 0.009,-0.0234 0.1598,-0.26914 0.17625,-0.28719 0.01,-0.0107 0.0333,0.0172 0.10442,0.12318 0.0576,0.0858 0.0894,0.14339 0.0853,0.15418 -0.009,0.0238 -0.1943,0.31304 -0.20438,0.31928 -0.005,0.003 -0.0259,-0.0257 -0.0475,-0.0632 z"
       id="path138008-1" />
    <path
       style="fill:#0000ff;fill-opacity:0;stroke:#000000;stroke-width:0.0208059;stroke-linejoin:bevel"
       d="m 90.014773,112.65401 c -0.0971,-0.17575 -0.0967,-0.15326 -0.005,-0.30588 0.0438,-0.0726 0.0832,-0.13411 0.0875,-0.13675 0.004,-0.003 0.038,0.0408 0.0749,0.0964 0.0912,0.13751 0.0947,0.14541 0.0786,0.17554 -0.0179,0.0334 -0.17329,0.27249 -0.17714,0.27249 -0.002,0 -0.0284,-0.0458 -0.0593,-0.10184 z"
       id="path138047-0" />
    <path
       style="fill:#0000ff;fill-opacity:0;stroke:#000000;stroke-width:0.0208059;stroke-linejoin:bevel"
       d="m 90.009933,112.60719 -0.06,-0.11564 0.0341,-0.0633 c 0.0187,-0.0348 0.0526,-0.0923 0.0754,-0.12771 l 0.0413,-0.0644 0.0424,0.0589 c 0.0233,0.0324 0.0554,0.0826 0.0714,0.11154 l 0.0289,0.0526 -0.0302,0.052 c -0.0332,0.0572 -0.13561,0.21162 -0.1403,0.21162 -0.002,0 -0.03,-0.052 -0.063,-0.11563 z"
       id="path138086-6" />
    <path
       style="fill:#0000ff;fill-opacity:0;stroke:#000000;stroke-width:0.0208059;stroke-linejoin:bevel"
       d="m 90.054273,111.7543 c 0.0128,-0.018 0.0283,-0.0358 0.0345,-0.0396 0.0123,-0.008 0.05,0.0225 0.0663,0.0529 0.009,0.0175 0.004,0.0194 -0.0568,0.0194 h -0.0672 z"
       id="path138320-1" />
    <path
       style="fill:#0000ff;fill-opacity:0;stroke:#000000;stroke-width:0.0208059;stroke-linejoin:bevel"
       d="m 90.022723,112.59537 c -0.0315,-0.0665 -0.0456,-0.10904 -0.0406,-0.12216 0.0115,-0.0303 0.10625,-0.18997 0.11645,-0.19627 0.0104,-0.006 0.12131,0.16246 0.12074,0.18379 -2.1e-4,0.008 -0.0337,0.0644 -0.0743,0.12553 l -0.0739,0.11115 z"
       id="path138359-5" />
    <path
       style="fill:#0000ff;fill-opacity:0;stroke:#000000;stroke-width:0.0208059;stroke-linejoin:bevel"
       d="m 90.031763,112.57252 -0.0367,-0.0842 0.043,-0.0815 c 0.0237,-0.0448 0.0489,-0.0863 0.0561,-0.0923 0.009,-0.008 0.0258,0.009 0.0583,0.0609 0.0249,0.0394 0.0452,0.0772 0.0452,0.084 0,0.0125 -0.11699,0.19739 -0.12488,0.19739 -0.002,0 -0.0208,-0.0379 -0.041,-0.0842 z"
       id="path138398-9" />
    <path
       style="fill:#0000ff;fill-opacity:0;stroke:#000000;stroke-width:0.0208059;stroke-linejoin:bevel"
       d="m 90.041493,112.55061 -0.0268,-0.0621 0.037,-0.0697 c 0.0203,-0.0383 0.0413,-0.0723 0.0465,-0.0755 0.01,-0.006 0.0775,0.0955 0.0775,0.11579 0,0.016 -0.0884,0.15371 -0.0987,0.15371 -0.005,0 -0.0207,-0.028 -0.0354,-0.0621 z"
       id="path138437-4" />
    <path
       style="fill:#0000ff;fill-opacity:0;stroke:#000000;stroke-width:0.0208059;stroke-linejoin:bevel"
       d="m 90.055113,112.53684 -0.0239,-0.0468 0.0314,-0.0556 c 0.0173,-0.0305 0.0354,-0.0562 0.0403,-0.057 0.005,-8e-4 0.0196,0.0169 0.0326,0.0393 0.023,0.0398 0.0232,0.0417 0.004,0.0771 -0.0108,0.02 -0.0289,0.0483 -0.0401,0.063 l -0.0204,0.0267 z"
       id="path138476-9" />
    <path
       style="fill:#0000ff;fill-opacity:0;stroke:#000000;stroke-width:0.0208059;stroke-linejoin:bevel"
       d="m 90.064043,112.5203 c -0.0109,-0.0238 -0.01,-0.0352 0.008,-0.0681 0.0277,-0.052 0.035,-0.0553 0.05,-0.0223 0.0137,0.0302 -0.001,0.0824 -0.0299,0.10647 -0.0118,0.01 -0.0178,0.006 -0.0281,-0.0161 z"
       id="path138515-0" />
    <path
       style="fill:none;stroke:#000000;stroke-width:0.264583px;stroke-linecap:butt;stroke-linejoin:miter;stroke-opacity:1"
       d="M 89.958333,108.47917 V 96.572917 h 17.197917 v -14.55208"
       id="path138946" />
    <path
       style="fill:none;stroke:#000000;stroke-width:0.264583px;stroke-linecap:butt;stroke-linejoin:miter;stroke-opacity:1"
       d="M 63.500003,108.47917 V 96.572917 H 34.395835 v -14.55208"
       id="path139061" />
  </g>
</svg>
